<svg width="20" height="37" viewBox="0 0 20 37" fill="none" xmlns="http://www.w3.org/2000/svg">
<path d="M12.9962 7.45304C14.6522 7.45304 15.9957 5.95993 15.9957 4.11959C15.9957 2.27924 14.6522 0.786133 12.9962 0.786133C11.3403 0.786133 9.99675 2.27924 9.99675 4.11959C9.99675 5.95993 11.3403 7.45304 12.9962 7.45304ZM18.9015 17.8076L17.4455 16.9881L16.8393 14.9464C15.9207 11.849 13.3587 9.68229 10.4529 9.67534C8.2033 9.6684 6.95976 10.3768 4.62266 11.4254C3.27288 12.0296 2.16682 13.1755 1.51693 14.6339L1.09825 15.5783C0.610834 16.6756 1.00452 18.009 1.9856 18.5576C2.96044 19.1062 4.14774 18.6618 4.6414 17.5645L5.06008 16.62C5.2788 16.1339 5.64123 15.7519 6.09116 15.5506L7.76588 14.8005L6.81604 19.016C6.49109 20.4604 6.84103 21.9952 7.74713 23.0994L11.4902 27.6413C11.9402 28.1899 12.2589 28.8496 12.4213 29.5649L13.5649 34.6554C13.8336 35.8429 14.9209 36.5721 15.9895 36.2735C17.0581 35.9749 17.7142 34.7665 17.4455 33.579L16.0582 27.3982C15.8958 26.6829 15.5771 26.0162 15.1271 25.4745L12.2839 22.023L13.3587 17.252L13.7024 18.3979C14.0336 19.516 14.7459 20.4396 15.6833 20.9674L17.1393 21.7869C18.1141 22.3355 19.3014 21.8911 19.7951 20.7938C20.2763 19.7035 19.8826 18.3562 18.9015 17.8076ZM4.59766 27.5788C4.39769 28.1413 4.09775 28.6482 3.71031 29.0719L0.585839 32.5512C-0.19528 33.4192 -0.19528 34.829 0.585839 35.6971C1.36696 36.5652 2.62924 36.5652 3.41036 35.6971L7.12223 31.572C7.50342 31.1483 7.80337 30.6414 8.00959 30.0788L8.85319 27.7315C5.39753 23.5439 6.43485 24.8287 5.89119 24.0022L4.59766 27.5788Z" fill="#00591E"/>
</svg>
